<svg width="99.000000" height="99.000000" viewBox="0 0 99 99" fill="none" xmlns="http://www.w3.org/2000/svg" xmlns:xlink="http://www.w3.org/1999/xlink">
	<desc>
			Created with Pixso.
	</desc>
	<defs>
		<filter id="filter_280_704_dd" x="0.000000" y="0.000000" width="99.000000" height="99.000000" filterUnits="userSpaceOnUse" color-interpolation-filters="sRGB">
			<feFlood flood-opacity="0" result="BackgroundImageFix"/>
			<feColorMatrix in="SourceAlpha" type="matrix" values="0 0 0 0 0 0 0 0 0 0 0 0 0 0 0 0 0 0 127 0" result="hardAlpha"/>
			<feOffset dx="0" dy="0"/>
			<feGaussianBlur stdDeviation="7.66667"/>
			<feComposite in2="hardAlpha" operator="out" k2="-1" k3="1"/>
			<feColorMatrix type="matrix" values="0 0 0 0 0.58039 0 0 0 0 0.58039 0 0 0 0 0.58039 0 0 0 0.17 0"/>
			<feBlend mode="normal" in2="BackgroundImageFix" result="effect_dropShadow_1"/>
			<feBlend mode="normal" in="SourceGraphic" in2="effect_dropShadow_1" result="shape"/>
		</filter>
	</defs>
	<g filter="url(#filter_280_704_dd)">
		<rect id="Frame 21314" rx="26.500000" width="53.000000" height="53.000000" transform="matrix(-1 0 0 1 76 23)" fill="#FFFFFF" fill-opacity="1.000000"/>
		<path id="Vector" d="M54.2324 37.3472C54.4805 37.1187 54.8091 36.9944 55.1484 37.0002C55.4873 37.0061 55.811 37.1418 56.0513 37.3787C56.291 37.6157 56.4287 37.9353 56.4346 38.2703C56.4404 38.6052 56.3145 38.9294 56.083 39.1746L45.6592 49.4678L56.083 59.7607C56.2119 59.8792 56.3149 60.022 56.3867 60.1807C56.458 60.3391 56.4966 60.5105 56.5 60.6841C56.5029 60.8577 56.4707 61.0303 56.4048 61.1912C56.3389 61.3523 56.2407 61.4985 56.1162 61.6213C55.9922 61.7441 55.8438 61.8408 55.6807 61.906C55.5181 61.9709 55.3433 62.0029 55.1675 61.9998C54.9917 61.9968 54.8179 61.9587 54.6577 61.8879C54.4971 61.8174 54.3521 61.7156 54.2324 61.5884L42.8828 50.3816C42.6377 50.1392 42.5 49.8103 42.5 49.4678C42.5 49.125 42.6377 48.7964 42.8828 48.554L54.2324 37.3472Z" fill="#E3010F" fill-opacity="1.000000" fill-rule="nonzero"/>
	</g>
</svg>
