<svg width="41.000000" height="41.000000" viewBox="0 0 41 41" fill="none" xmlns="http://www.w3.org/2000/svg" xmlns:xlink="http://www.w3.org/1999/xlink">
	<desc>
			Created with Pixso.
	</desc>
	<defs/>
	<path id="Vector" d="M20.5 0C9.2251 0 0 9.22461 0 20.5C0 31.7754 9.2251 41 20.5 41C31.7749 41 41 31.7754 41 20.5C41 9.22461 31.7749 0 20.5 0ZM20.5 36.9004C11.48 36.9004 4.1001 29.5195 4.1001 20.5C4.1001 11.4805 11.48 4.09961 20.5 4.09961C29.52 4.09961 36.8999 11.4805 36.8999 20.5C36.8999 29.5195 29.52 36.9004 20.5 36.9004Z" fill="#E3010F" fill-opacity="1.000000" fill-rule="nonzero"/>
	<path id="Vector" d="M21.5244 10.25L18.4492 10.25L18.4492 22.5498L29.1094 29.1104L30.749 26.4453L21.5244 20.9102L21.5244 10.25Z" fill="#E3010F" fill-opacity="1.000000" fill-rule="nonzero"/>
</svg>

