<svg width="44.000000" height="32.999817" viewBox="0 0 44 32.9998" fill="none" xmlns="http://www.w3.org/2000/svg" xmlns:xlink="http://www.w3.org/1999/xlink">
	<desc>
			Created with Pixso.
	</desc>
	<defs/>
	<path id="Vector" d="M2.00098 11.2591C2.00098 10.9755 2.23193 10.7456 2.51465 10.7456C2.79688 10.7456 3.02783 10.9766 3.02783 11.2591L3.02783 29.833C3.02783 30.4206 3.26953 30.9556 3.65625 31.3434C4.04443 31.7313 4.5791 31.973 5.16699 31.973L31.6997 31.973C32.2876 31.973 32.8223 31.7313 33.2104 31.3434C33.5981 30.9556 33.8389 30.4206 33.8389 29.833L33.8389 11.2591C33.8389 10.9755 34.0698 10.7456 34.3521 10.7456C34.6348 10.7456 34.8657 10.9766 34.8657 11.2591L34.8657 29.833C34.8657 30.7043 34.5093 31.4969 33.9365 32.0696C33.3628 32.6433 32.5713 32.9998 31.7002 32.9998L5.16699 32.9998C4.29541 32.9998 3.50293 32.6432 2.93018 32.0696C2.35742 31.497 2.00098 30.7042 2.00098 29.8329L2.00098 11.2591Z" fill="#E3010F" fill-opacity="1.000000" fill-rule="nonzero"/>
	<path id="Vector" d="M11.9502 13.0992L7.00732 13.0992L7.00732 18.7047L11.9502 18.7047L11.9502 13.0992ZM6.49365 12.0723L12.4507 12.0723L12.4634 12.0723C12.7471 12.0723 12.9771 12.3032 12.9771 12.5858L12.9771 19.2053L12.9771 19.2182C12.9771 19.5018 12.7461 19.7317 12.4634 19.7317L6.50684 19.7317L6.49414 19.7317C6.21045 19.7317 5.98047 19.5007 5.98047 19.2182L5.98047 12.5986L5.98047 12.5857C5.97949 12.3032 6.21045 12.0723 6.49365 12.0723Z" fill="#E3010F" fill-opacity="1.000000" fill-rule="nonzero"/>
	<path id="Vector" d="M29.8604 13.0992L24.918 13.0992L24.918 18.7047L29.8604 18.7047L29.8604 13.0992ZM24.4033 12.0723L30.3599 12.0723L30.374 12.0723C30.6577 12.0723 30.8872 12.3032 30.8872 12.5858L30.8872 19.2053L30.8872 19.2182C30.8872 19.5018 30.6562 19.7317 30.374 19.7317L24.417 19.7317L24.4043 19.7317C24.1206 19.7317 23.8896 19.5007 23.8896 19.2182L23.8896 12.5986L23.8896 12.5857C23.8896 12.3032 24.1206 12.0723 24.4033 12.0723Z" fill="#E3010F" fill-opacity="1.000000" fill-rule="nonzero"/>
	<path id="Vector" d="M20.9043 13.0992L15.9614 13.0992L15.9614 18.7047L20.9043 18.7047L20.9043 13.0992ZM15.4482 12.0723L21.4048 12.0723L21.4189 12.0723C21.7026 12.0723 21.9321 12.3032 21.9321 12.5858L21.9321 19.2053L21.9321 19.2182C21.9321 19.5018 21.7012 19.7317 21.4189 19.7317L15.4619 19.7317L15.4482 19.7317C15.1646 19.7317 14.9346 19.5007 14.9346 19.2182L14.9346 12.5986L14.9346 12.5857C14.9346 12.3032 15.1655 12.0723 15.4482 12.0723Z" fill="#E3010F" fill-opacity="1.000000" fill-rule="nonzero"/>
	<path id="Vector" d="M11.9502 22.3875L7.00732 22.3875L7.00732 27.993L11.9502 27.993L11.9502 22.3875ZM6.49365 21.3594L12.4507 21.3594L12.4634 21.3594C12.7471 21.3594 12.9771 21.5904 12.9771 21.8729L12.9771 28.4925L12.9771 28.5065C12.9771 28.79 12.7461 29.02 12.4634 29.02L6.50684 29.02L6.49414 29.02C6.21045 29.02 5.98047 28.7891 5.98047 28.5065L5.98047 21.8869L5.98047 21.8741C5.97949 21.5904 6.21045 21.3594 6.49365 21.3594Z" fill="#E3010F" fill-opacity="1.000000" fill-rule="nonzero"/>
	<path id="Vector" d="M29.8604 22.3875L24.918 22.3875L24.918 27.993L29.8604 27.993L29.8604 22.3875ZM24.4033 21.3594L30.3599 21.3594L30.374 21.3594C30.6577 21.3594 30.8872 21.5904 30.8872 21.8729L30.8872 28.4925L30.8872 28.5065C30.8872 28.79 30.6562 29.02 30.374 29.02L24.417 29.02L24.4043 29.02C24.1206 29.02 23.8896 28.7891 23.8896 28.5065L23.8896 21.8869L23.8896 21.8741C23.8896 21.5904 24.1206 21.3594 24.4033 21.3594Z" fill="#E3010F" fill-opacity="1.000000" fill-rule="nonzero"/>
	<path id="Vector" d="M20.9043 22.3875L15.9614 22.3875L15.9614 27.993L20.9043 27.993L20.9043 22.3875ZM15.4482 21.3594L21.4048 21.3594L21.4189 21.3594C21.7026 21.3594 21.9321 21.5904 21.9321 21.8729L21.9321 28.4925L21.9321 28.5065C21.9321 28.79 21.7012 29.02 21.4189 29.02L15.4619 29.02L15.4482 29.02C15.1646 29.02 14.9346 28.7891 14.9346 28.5065L14.9346 21.8869L14.9346 21.8741C14.9346 21.5904 15.1655 21.3594 15.4482 21.3594Z" fill="#E3010F" fill-opacity="1.000000" fill-rule="nonzero"/>
	<path id="Vector" d="M26.6499 6.05341C26.6499 6.33704 26.4189 6.56696 26.1367 6.56696C25.853 6.56696 25.623 6.33594 25.623 6.05341L25.623 0.513489C25.6221 0.230957 25.853 0 26.1353 0C26.4189 0 26.6489 0.230957 26.6489 0.513489L26.6489 6.05341L26.6499 6.05341Z" fill="#E3010F" fill-opacity="1.000000" fill-rule="nonzero"/>
	<path id="Vector" d="M11.2437 6.05341C11.2437 6.33704 11.0127 6.56696 10.7305 6.56696C10.4468 6.56696 10.2168 6.33594 10.2168 6.05341L10.2168 0.513489C10.2158 0.230957 10.4468 0 10.729 0C11.0127 0 11.2437 0.230957 11.2437 0.513489L11.2437 6.05341Z" fill="#E3010F" fill-opacity="1.000000" fill-rule="nonzero"/>
	<path id="Vector" d="M10.7295 2.57086C11.0132 2.57086 11.2427 2.80072 11.2427 3.08435C11.2427 3.36792 11.0117 3.59784 10.7295 3.59784L5.16699 3.59784C4.5835 3.59784 4.04883 3.84064 3.65869 4.22955L3.63428 4.25427C3.26025 4.63885 3.02734 5.16522 3.02734 5.73669L3.02734 8.09259L33.8379 8.09259L33.8379 5.73669C33.8379 5.15125 33.5952 4.61731 33.2075 4.22955L33.1826 4.2038C32.7969 3.82996 32.2705 3.5979 31.6978 3.5979L28.186 3.5979C27.9028 3.5979 27.6729 3.36694 27.6729 3.08441C27.6729 2.80078 27.9038 2.57092 28.186 2.57092L31.6978 2.57092C32.5444 2.57092 33.3257 2.91571 33.8979 3.47113L33.9336 3.50336C34.5059 4.07697 34.8647 4.86761 34.8647 5.73669L34.8647 8.59204L34.8647 8.60602C34.8647 8.88965 34.6338 9.11951 34.3516 9.11951L2.52734 9.11951L2.51367 9.11951C2.23096 9.12061 2 8.88965 2 8.60602L2 5.73669C2 4.8891 2.34473 4.11029 2.90039 3.53772L2.93262 3.50226C3.50732 2.92755 4.29883 2.56982 5.16699 2.56982L10.7295 2.56982L10.7295 2.57086ZM26.1353 2.57086L12.7822 2.57086C12.4985 2.57086 12.2686 2.80072 12.2686 3.08435C12.2686 3.36792 12.5 3.59784 12.7822 3.59784L26.1353 3.59784C26.4189 3.59784 26.6489 3.36688 26.6489 3.08435C26.6499 2.80072 26.4189 2.57086 26.1353 2.57086Z" fill="#E3010F" fill-opacity="1.000000" fill-rule="nonzero"/>
</svg>
