<svg width="54.486816" height="48.953217" viewBox="0 0 54.4868 48.9532" fill="none" xmlns="http://www.w3.org/2000/svg" xmlns:xlink="http://www.w3.org/1999/xlink">
	<desc>
			Created with Pixso.
	</desc>
	<defs/>
	<path id="Vector" d="M54.0464 21.4858L42.269 12.972C41.9453 12.7377 41.5171 12.705 41.1611 12.8867C40.8052 13.0687 40.5811 13.4347 40.5811 13.8344L40.5811 20.2657L30.4917 12.972C30.168 12.7377 29.7402 12.705 29.3843 12.8867C29.0283 13.0687 28.8042 13.4347 28.8042 13.8344L28.8042 20.2657L18.7148 12.972C18.3911 12.7377 17.9629 12.705 17.6069 12.8867C17.251 13.0687 17.0269 13.4347 17.0269 13.8344L17.0269 21.2839L14.8276 21.2839L13.4287 0.991089C13.3896 0.433029 12.9263 0 12.3667 0L6.78906 0C6.22949 0 5.76562 0.432922 5.72705 0.991089L4.32764 21.284L1.06396 21.284C0.476562 21.284 0 21.7605 0 22.3482L0 47.889C0 48.4767 0.476562 48.9532 1.06396 48.9532L53.4229 48.9532C54.0107 48.9532 54.4868 48.4767 54.4868 47.889L54.4868 22.3482C54.4868 22.0065 54.3232 21.6857 54.0464 21.4858ZM6.60791 19.1555L8.87891 19.1555C9.4668 19.1555 9.94336 18.679 9.94336 18.0913C9.94336 17.5035 9.4668 17.0271 8.87891 17.0271L6.75488 17.0271L7.78223 2.12851L11.3735 2.12851L12.6943 21.2839L6.46143 21.2839L6.60791 19.1555ZM17.0269 25.5409L11.1006 25.5409C10.5132 25.5409 10.0361 26.0175 10.0361 26.6051C10.0361 27.1928 10.5132 27.6693 11.1006 27.6693L17.0269 27.6693L17.0269 29.7976L11.1006 29.7976C10.5132 29.7976 10.0361 30.2742 10.0361 30.8618C10.0361 31.4496 10.5132 31.926 11.1006 31.926L17.0269 31.926L17.0269 34.0544L14.1831 34.0544C13.5952 34.0544 13.1187 34.531 13.1187 35.1186C13.1187 35.7064 13.5952 36.1828 14.1831 36.1828L17.0269 36.1828L17.0269 38.3111L11.1006 38.3111C10.5132 38.3111 10.0361 38.7877 10.0361 39.3753C10.0361 39.963 10.5132 40.4395 11.1006 40.4395L17.0269 40.4395L17.0269 42.5677L11.1006 42.5677C10.5132 42.5677 10.0361 43.0443 10.0361 43.6319C10.0361 44.2197 10.5132 44.6961 11.1006 44.6961L17.0269 44.6961L17.0269 46.8247L2.12842 46.8247L2.12842 23.4123L5.31689 23.4123C5.31836 23.4123 5.31982 23.4125 5.3208 23.4125L13.8345 23.4125C13.8354 23.4126 13.8359 23.4126 13.8364 23.4125C13.8379 23.4125 13.8394 23.4123 13.8408 23.4123L17.0269 23.4123L17.0269 25.5409ZM52.3589 46.8247L19.1553 46.8247L19.1553 22.3481L19.1553 15.9168L29.2451 23.2105C29.5688 23.4448 29.9966 23.4779 30.353 23.2957C30.7085 23.1138 30.9326 22.7478 30.9326 22.3481L30.9326 15.9168L41.022 23.2104C41.3457 23.4448 41.7739 23.4775 42.1299 23.2957C42.4858 23.1138 42.7095 22.7478 42.7095 22.3481L42.7095 15.9168L52.3589 22.8919L52.3589 46.8247Z" fill="#E3010F" fill-opacity="1.000000" fill-rule="nonzero"/>
</svg>
