<svg width="50.000000" height="51.000000" viewBox="0 0 50 51" fill="none" xmlns="http://www.w3.org/2000/svg" xmlns:xlink="http://www.w3.org/1999/xlink">
	<desc>
			Created with Pixso.
	</desc>
	<defs/>
	<path id="Vector" d="M19.8237 1.5L30.1763 1.5L31.1426 8.33273C33.2769 9.11797 35.252 10.275 36.9741 11.7491L43.3237 9.22099L48.5 18.1036L43.1167 21.9982C43.5522 24.2554 43.5522 26.5738 43.1167 28.831L48.5 32.9989L43.3237 41.8815L36.9741 39.3534C36.1255 40.0867 35.2002 40.7281 34.2139 41.2665C33.2417 41.8375 32.2124 42.3069 31.1426 42.6673L30.1763 49.5L19.8237 49.5L18.8574 42.6673C16.7231 41.882 14.748 40.725 13.0259 39.2509L6.67627 41.779L1.5 32.8964L6.8833 28.831C6.44775 26.5738 6.44775 24.2554 6.8833 21.9982L1.5 17.8986L6.67627 9.01602L13.0259 11.5441C13.8745 10.8108 14.7998 10.1695 15.7861 9.63097C16.7627 9.09541 17.7915 8.66039 18.8574 8.33273L19.8237 1.5Z" stroke="#E3010F" stroke-opacity="1.000000" stroke-width="3.000000" stroke-linejoin="round"/>
</svg>
