<svg width="33.875000" height="51.011765" viewBox="0 0 33.875 51.0118" fill="none" xmlns="http://www.w3.org/2000/svg" xmlns:xlink="http://www.w3.org/1999/xlink">
	<desc>
			Created with Pixso.
	</desc>
	<defs/>
	<path id="Vector" d="M29.8896 43.0412L29.7886 43.0412L28.991 35.5972C28.6611 32.6265 27.2529 29.8928 25.0259 27.9003C24.0449 27.0216 22.9385 26.3172 21.7515 25.8038C25.5964 24.1362 28.4412 20.5287 28.9749 16.1418C28.9756 16.1374 28.9761 16.1327 28.9766 16.1281C28.9773 16.1232 28.978 16.1184 28.9785 16.1134C28.9832 16.0778 28.9878 16.0412 28.9919 16.0014L29.7952 7.97058L29.8896 7.97058C30.9539 7.97058 31.9543 7.55592 32.7075 6.80299C33.4604 6.05017 33.875 5.04947 33.875 3.98529C33.875 1.7878 32.0872 0 29.8896 0L3.98535 0C2.92114 0 1.92065 0.414673 1.16748 1.16759C0.414551 1.92041 0 2.92113 0 3.98529C0 6.18279 1.78784 7.97058 3.98535 7.97058L4.07983 7.97058L4.88354 16.0067C4.88721 16.0417 4.89185 16.0764 4.89624 16.1109C4.89673 16.1176 4.89795 16.1243 4.89868 16.131C4.89917 16.1346 4.89966 16.1382 4.8999 16.1418C5.43359 20.5274 8.27661 24.1339 12.1196 25.8022C8.23242 27.4831 5.37842 31.1442 4.88379 35.601L4.08643 43.0412L3.98535 43.0412C2.92114 43.0412 1.92065 43.4558 1.16748 44.2088C0.414551 44.9616 0 45.9623 0 47.0265C0 49.224 1.78784 51.0118 3.98535 51.0118L29.8896 51.0118C30.9539 51.0118 31.9543 50.5971 32.7075 49.8442C33.4604 49.0914 33.875 48.0906 33.875 47.0265C33.875 44.829 32.0872 43.0412 29.8896 43.0412ZM3.98535 5.97794C2.88647 5.97794 1.99268 5.08405 1.99268 3.98529C1.99268 3.45346 2.2002 2.9532 2.57666 2.5766C2.95312 2.20009 3.45337 1.99265 3.98535 1.99265L29.8896 1.99265C30.9885 1.99265 31.8823 2.88655 31.8823 3.98529C31.8823 4.51714 31.6748 5.01738 31.2983 5.394C30.9219 5.77051 30.4216 5.97794 29.8896 5.97794L28.8933 5.97794L4.98169 5.97794L3.98535 5.97794ZM6.08252 7.97058L27.7925 7.97058L27.0876 15.0186L6.78735 15.0186L6.08252 7.97058ZM7.07861 17.0112L26.7964 17.0112C25.7295 21.5269 21.675 24.8085 16.9375 24.8085C12.2 24.8085 8.14551 21.5269 7.07861 17.0112ZM6.8645 35.8171C7.39795 31.011 11.219 27.3103 15.9412 26.8498L15.9412 29.7901C15.9412 30.3402 16.3872 30.7864 16.9375 30.7864C17.4878 30.7864 17.9338 30.3402 17.9338 29.7901L17.9338 26.8512C20.0686 27.0612 22.0854 27.9415 23.6968 29.3848C25.5581 31.0501 26.7349 33.3346 27.01 35.8132L27.7017 42.2665L17.9041 37.0053C17.8311 36.9662 17.7534 36.9363 17.6731 36.9163C17.1875 36.7955 16.6746 36.7996 16.1897 36.9277C16.1145 36.9476 16.042 36.9762 15.9736 37.0128L6.17334 42.268L6.8645 35.8171ZM24.9319 43.0412L8.94824 43.0412L16.7939 38.8341C16.8923 38.8182 16.9927 38.8171 17.0908 38.8305L24.9319 43.0412ZM31.2983 48.4352C30.9219 48.8117 30.4216 49.0191 29.8896 49.0191L3.98535 49.0191C2.88647 49.0191 1.99268 48.1252 1.99268 47.0265C1.99268 46.4946 2.2002 45.9944 2.57666 45.6178C2.95312 45.2413 3.45337 45.0338 3.98535 45.0338L4.97437 45.0338C4.97632 45.0338 4.97852 45.0338 4.98071 45.0338L4.98169 45.0338L28.8894 45.0338C28.8904 45.0338 28.8916 45.034 28.8926 45.034C28.8936 45.034 28.8943 45.0338 28.8953 45.0338L29.8896 45.0338C30.9885 45.0338 31.8823 45.9277 31.8823 47.0265C31.8823 47.5583 31.6748 48.0586 31.2983 48.4352Z" fill="#E3010F" fill-opacity="1.000000" fill-rule="nonzero"/>
</svg>
