<svg width="51.555176" height="43.350632" viewBox="0 0 51.5552 43.3506" fill="none" xmlns="http://www.w3.org/2000/svg" xmlns:xlink="http://www.w3.org/1999/xlink">
	<desc>
			Created with Pixso.
	</desc>
	<defs/>
	<path id="Vector" d="M36.6665 13.8303L31.0576 13.8303L31.0576 8.13416C31.0576 7.84024 30.9419 7.55836 30.7354 7.35054C30.5293 7.14272 30.2495 7.02596 29.9575 7.02596L28.5942 7.02596L28.5942 1.1082C28.5942 0.814285 28.478 0.53241 28.272 0.324585C28.0659 0.11676 27.7861 0 27.4941 0L1.09961 0C0.808105 0 0.52832 0.11676 0.322266 0.324585C0.115723 0.53241 0 0.814285 0 1.1082L0 7.91252C0 8.05804 0.0283203 8.20215 0.0834961 8.33661C0.13916 8.47105 0.220215 8.59322 0.322266 8.69612C0.424316 8.79903 0.54541 8.88066 0.678711 8.93636C0.8125 8.99205 0.955566 9.02071 1.09961 9.02071L2.55127 9.02071L2.55127 14.9385C2.55127 15.2324 2.66748 15.5143 2.87354 15.7221C3.07959 15.9299 3.35938 16.0467 3.65137 16.0467L4.75098 16.0467L4.75098 20.6568L1.45166 20.6568C1.16016 20.6568 0.880371 20.7735 0.673828 20.9813C0.467773 21.1892 0.352051 21.471 0.352051 21.765L0.352051 42.1114C0.352051 42.4053 0.467773 42.6872 0.673828 42.895C0.880371 43.1029 1.16016 43.2196 1.45166 43.2196L27.8462 43.2196C28.1377 43.2196 28.4175 43.1029 28.624 42.895C28.8301 42.6872 28.9458 42.4053 28.9458 42.1114L28.9458 40.9811C30.8672 42.2342 33.0532 43.0163 35.3281 43.2647C37.6035 43.5131 39.9048 43.2209 42.0479 42.4115C44.1909 41.6021 46.1157 40.298 47.6685 38.6037C49.2212 36.9095 50.3579 34.8723 50.9883 32.6554C51.6187 30.4385 51.7251 28.1036 51.2983 25.8379C50.8716 23.5722 49.9243 21.4388 48.5317 19.6086C47.1396 17.7784 45.3408 16.3024 43.2803 15.299C41.2197 14.2955 38.9546 13.7925 36.6665 13.8303ZM2.19971 2.21638L26.3945 2.21638L26.3945 6.80432L2.19971 6.80432L2.19971 2.21638ZM4.75098 9.24236L28.9458 9.24236L28.9458 13.8303L4.75098 13.8303L4.75098 9.24236ZM6.95068 16.0467L28.9458 16.0467C27.0874 17.2114 25.5093 18.7786 24.3271 20.6346L6.95068 20.6346L6.95068 16.0467ZM22.3472 34.2654L2.55127 34.2654L2.55127 29.6775L21.9956 29.6775C22.1064 31.2554 22.4707 32.8047 23.0732 34.2654L22.3472 34.2654ZM2.55127 22.851L23.1611 22.851C22.5508 24.3103 22.1797 25.8598 22.0615 27.4389L2.55127 27.4389L2.55127 22.851ZM26.7466 41.0697L2.55127 41.0697L2.55127 36.4818L24.3052 36.4818C24.9668 37.5308 25.7578 38.4914 26.6587 39.3409L26.7466 41.0697ZM36.7544 41.0697C34.5757 41.0719 32.4351 40.4959 30.5474 39.3996C28.6597 38.3034 27.0918 36.7256 26.0015 34.8249C24.9116 32.9242 24.3369 30.7677 24.3364 28.5724C24.3359 26.377 24.9092 24.2203 25.9985 22.319C26.042 22.2566 26.0791 22.1898 26.1084 22.1196C27.2266 20.249 28.8115 18.7063 30.7056 17.6449C32.5991 16.5835 34.7358 16.0405 36.9028 16.07C39.0698 16.0995 41.1909 16.7004 43.0557 17.813C44.9204 18.9256 46.4634 20.5109 47.5308 22.4112C48.5986 24.3115 49.1533 26.4605 49.1406 28.6441C49.1274 30.8277 48.5469 32.9698 47.457 34.8571C46.3672 36.7444 44.8052 38.311 42.9277 39.401C41.0498 40.491 38.9214 41.0663 36.7544 41.0697Z" fill="#E3010F" fill-opacity="1.000000" fill-rule="nonzero"/>
</svg>
