<svg width="195.000000" height="64.286865" viewBox="0 0 195 64.2869" fill="none" xmlns="http://www.w3.org/2000/svg" xmlns:xlink="http://www.w3.org/1999/xlink">
	<desc>
			Created with Pixso.
	</desc>
	<defs/>
	<path id="Vector" d="M134.614 60.1318L134.614 6.21143L167.261 6.21143L167.261 60.1318L134.614 60.1318ZM139.137 55.7278L139.137 10.6155L162.738 10.6155L162.738 55.7278L139.137 55.7278Z" fill="#E3010F" fill-opacity="1.000000" fill-rule="evenodd"/>
	<path id="Vector" d="M134.614 60.1372C137.189 52.761 139.769 45.3667 142.351 37.9543C144.934 30.5421 147.538 23.0757 150.164 15.5552L166.623 15.6039L183.054 15.6526C180.403 23.1298 177.759 30.58 175.122 38.0031L167.261 60.1534L134.614 60.1534L134.614 60.1372ZM140.403 56.5284C142.567 50.3533 144.732 44.1583 146.896 37.9436C149.06 31.7288 151.241 25.4888 153.437 19.2235L165.34 19.2614L177.243 19.2938C175.032 25.5447 172.826 31.7739 170.626 37.9814C168.426 44.1891 166.236 50.3732 164.058 56.5338L140.403 56.5338L140.403 56.5284Z" fill="#E3010F" fill-opacity="1.000000" fill-rule="evenodd"/>
	<path id="Vector" d="M134.614 60.1372L145.879 44.9393L157.019 29.9091L173.19 29.6494L189.66 29.3843C185.966 34.4592 182.255 39.5559 178.525 44.6742L167.261 60.1372L134.614 60.1372ZM140.912 57.6376L150.332 44.9069L159.659 32.295L171.384 32.1219L183.254 31.9434C180.159 36.1924 177.052 40.4504 173.932 44.7175L164.512 57.6105L152.609 57.6105L140.885 57.6105L140.912 57.6376Z" fill="#E3010F" fill-opacity="1.000000" fill-rule="evenodd"/>
	<path id="Vector" d="M134.614 60.1372L141.994 55.3868C144.434 53.807 146.863 52.2433 149.293 50.6852L156.429 46.0917L163.463 41.5415L195 41.5415C192.739 43.051 190.482 44.5659 188.21 46.0917L181.355 50.6852L174.321 55.3868L167.223 60.1372L134.614 60.1372ZM141.545 58.5736L147.664 54.6132L153.735 50.6852L159.686 46.8329L165.583 43.0455L188.438 43.0455L182.713 46.8654L176.924 50.6852L171.032 54.6132L165.081 58.5736L141.55 58.5736L141.545 58.5736Z" fill="#E3010F" fill-opacity="1.000000" fill-rule="evenodd"/>
	<path id="Vector" d="M8.02051 6.29236L13.1606 6.29236L13.1606 29.3517L8.02051 29.3517L8.02051 20.2567L5.19092 20.2567L5.19092 29.3517L0.0512695 29.3517L0.0512695 6.29236L5.19092 6.29236L5.19092 15.2521L8.02051 15.2521L8.02051 6.29236ZM26.1836 11.297L21.3413 11.297L21.3413 15.2521L25.8535 15.2521L25.8535 20.2567L21.3413 20.2567L21.3413 24.3469L26.1836 24.3469L26.1836 29.3571L16.2012 29.3571L16.2012 6.29236L26.1836 6.29236L26.1836 11.297ZM40.7266 6.29236L47.1167 6.29236L47.1167 29.3517L41.9443 29.3517L41.9443 18.152L39.439 29.3517L36.3442 29.3517L33.8394 18.152L33.8394 29.3517L28.6777 29.3517L28.6777 6.29236L35.0674 6.29236L37.8755 20.6191L40.7104 6.29236L40.7266 6.29236ZM59.8418 11.297L54.9727 11.297L54.9727 15.2521L59.5171 15.2521L59.5171 20.2567L55.0049 20.2567L55.0049 24.3469L59.8745 24.3469L59.8745 29.3571L49.8594 29.3571L49.8594 6.29236L59.8418 6.29236L59.8418 11.297ZM75.2021 24.2821L76.8252 24.2821L76.8252 33.1768L71.6528 33.1768L71.6528 29.3246L62.0928 29.3246L62.0928 6.29236L67.2324 6.29236L67.2324 24.3091L70.0674 24.3091L70.0674 6.29236L75.2075 6.29236L75.2075 24.3091L75.2021 24.2821ZM93.4351 29.3246L87.9653 29.3246L84.4434 21.9447L84.4434 29.3246L79.103 29.3246L79.103 6.29236L84.4434 6.29236L84.4434 13.3746L87.7329 6.29236L93.2026 6.29236L88.3926 17.7192L93.4351 29.3517L93.4351 29.3246ZM105.241 6.26526L110.311 6.26526L110.311 29.3246L105.138 29.3246L105.138 17.1294L100.81 29.3517L95.7349 29.3517L95.7349 6.29236L100.907 6.29236L100.907 18.4767L105.235 6.29236L105.241 6.26526ZM121.293 0L124.918 0C124.888 1.21143 124.378 2.36145 123.501 3.19763C122.853 3.82544 122.035 4.25146 121.149 4.42407C120.263 4.59656 119.346 4.5083 118.509 4.16968C117.672 3.83118 116.951 3.25696 116.434 2.51672C115.917 1.77661 115.626 0.902344 115.597 0L119.216 0C119.235 0.254761 119.354 0.491821 119.546 0.660034C119.743 0.830566 119.995 0.924561 120.255 0.924561C120.515 0.924561 120.767 0.830566 120.963 0.660034C121.156 0.491821 121.274 0.254761 121.293 0ZM122.446 6.29236L127.521 6.29236L127.521 29.3517L122.349 29.3517L122.349 17.1294L118.021 29.3517L112.951 29.3517L112.951 6.29236L118.118 6.29236L118.118 18.4767L122.446 6.29236ZM0.00244141 52.3514L0.00244141 44.5225C-0.0249023 43.2091 0.180176 41.9014 0.608398 40.6594C0.925781 39.6898 1.48438 38.8168 2.23145 38.1219C2.86475 37.554 3.59863 37.1097 4.39551 36.8126C6.00146 36.2606 7.74561 36.2606 9.35156 36.8126C10.1484 37.0955 10.8828 37.5291 11.5156 38.0895C12.2651 38.7672 12.8247 39.6289 13.1392 40.5891C13.5581 41.828 13.7686 43.1281 13.7612 44.4359L13.7612 45.2096L8.48584 45.2096L8.48584 44.5712C8.4209 42.5315 7.90186 41.5143 6.93848 41.5143C6.68701 41.5082 6.44043 41.5812 6.23242 41.7229C6.0249 41.8646 5.8667 42.0679 5.78076 42.3042C5.50586 43.0851 5.38672 43.9122 5.4292 44.7389L5.4292 52.1295C5.38818 52.9633 5.50781 53.7971 5.78076 54.5859C5.86426 54.8252 6.021 55.0321 6.229 55.1769C6.43701 55.3217 6.68506 55.397 6.93848 55.3921C7.92334 55.3921 8.44287 54.3478 8.48584 52.2648L8.48584 51.6588L13.7612 51.6588L13.7612 52.465C13.7695 53.7729 13.5591 55.0732 13.1392 56.3119C12.8232 57.2729 12.2642 58.136 11.5156 58.8169C10.8828 59.3773 10.1484 59.8109 9.35156 60.0938C7.74561 60.6458 6.00146 60.6458 4.39551 60.0938C3.59961 59.7946 2.86572 59.3506 2.23145 58.7844C1.48438 58.0896 0.925781 57.2166 0.608398 56.2469C0.180176 55.005 -0.0249023 53.6971 0.00244141 52.3839L0.00244141 52.3514ZM28.0718 36.6936L28.0718 41.801L24.4736 41.801L24.4736 60.1965L19.2363 60.1965L19.2363 41.801L15.6929 41.801L15.6929 36.6936L28.0718 36.6936ZM38.7358 60.2128L37.9619 55.641L34.7158 55.641L33.9097 60.2128L28.6777 60.2128L32.9414 36.6936L39.6987 36.6936L44 60.2128L38.7358 60.2128ZM35.2407 50.4037L37.3345 50.4037L36.2954 42.6072L35.2134 50.4037L35.2407 50.4037ZM54.5723 36.6936L59.8149 36.6936L59.8149 60.2128L54.5723 60.2128L54.5723 50.9393L51.6831 50.9393L51.6831 60.2128L46.4404 60.2128L46.4404 36.6936L51.6831 36.6936L51.6831 45.8318L54.5723 45.8318L54.5723 36.6936ZM78.2373 55.0891L79.8604 55.0891L79.8604 64.2869L74.5854 64.2869L74.5854 60.2561L67.3896 60.2561L67.3896 64.2869L62.1143 64.2869L62.1143 55.0891L62.8174 55.0891C64.2241 54.9232 64.9277 53.8735 64.9277 51.9402L64.9277 36.6936L78.2373 36.6936L78.2373 55.0891ZM69.5806 55.0891L72.9785 55.0891L72.9785 41.8335L70.1758 41.8335L70.1758 52.1134C70.2031 53.1333 69.9961 54.1459 69.5698 55.0729L69.5806 55.0891ZM91.9043 60.229L91.1304 55.6572L87.8843 55.6572L87.0781 60.229L81.8354 60.229L86.104 36.7098L92.8564 36.7098L97.1577 60.229L91.9043 60.229ZM88.4092 50.4199L90.5298 50.4199L89.4858 42.6234L88.4038 50.4199L88.4092 50.4199ZM99.7114 36.7098L105.181 36.7098C105.923 36.7056 106.664 36.7672 107.394 36.8938C108.115 37.0249 108.815 37.2505 109.477 37.5647C110.14 37.8658 110.744 38.2816 111.263 38.7928C111.79 39.3406 112.195 39.9932 112.453 40.7081C112.768 41.5579 112.922 42.4586 112.907 43.3646L112.907 44.9878C112.929 46.0229 112.722 47.05 112.301 47.996C111.944 48.8054 111.386 49.5096 110.678 50.0411C109.995 50.5416 109.234 50.929 108.428 51.1881C107.576 51.4509 106.694 51.6019 105.804 51.6372L104.965 51.6372L104.965 60.2074L99.7222 60.2074L99.7222 36.6936L99.7114 36.7098ZM107.827 44.3385L107.827 44.068C107.873 43.4432 107.679 42.8245 107.286 42.3367C107.126 42.1625 106.931 42.0242 106.714 41.9309C106.497 41.8376 106.262 41.7915 106.025 41.7957L104.943 41.7957L104.943 46.6001L106.025 46.6001C106.262 46.6052 106.497 46.5596 106.714 46.4663C106.932 46.3729 107.127 46.2341 107.286 46.0591C107.676 45.5846 107.87 44.9785 107.827 44.3656L107.827 44.3385ZM127.494 36.7098L127.494 41.8173L123.901 41.8173L123.901 60.2128L118.659 60.2128L118.659 41.8173L115.099 41.8173L115.099 36.7098L127.494 36.7098Z" fill="#E3010F" fill-opacity="1.000000" fill-rule="nonzero"/>
</svg>
