<svg width="41.821777" height="41.821777" viewBox="0 0 41.8218 41.8218" fill="none" xmlns="http://www.w3.org/2000/svg" xmlns:xlink="http://www.w3.org/1999/xlink">
	<desc>
			Created with Pixso.
	</desc>
	<defs/>
	<path id="Vector" d="M35.2856 28.4395C35.1113 28.3804 34.9268 28.3563 34.7427 28.369C34.5591 28.3816 34.3794 28.4305 34.2148 28.5129C34.0498 28.5953 33.9033 28.7096 33.7827 28.849C33.6626 28.9885 33.5708 29.1504 33.5137 29.3256C33.4561 29.5006 33.4341 29.6853 33.4487 29.8689C33.4629 30.0526 33.5137 30.2316 33.5977 30.3955C33.6816 30.5594 33.7974 30.7052 33.938 30.8241C34.0786 30.9431 34.2417 31.033 34.417 31.0886C37.606 32.1343 39.0337 33.3826 39.0337 34.1545C39.0337 36.0972 31.8052 39.0337 20.9106 39.0337C10.0161 39.0337 2.78809 36.0972 2.78809 34.1545C2.78809 33.3826 4.21533 32.1343 7.40479 31.0886C7.58008 31.033 7.74316 30.9431 7.88379 30.8241C8.02441 30.7052 8.14014 30.5594 8.22412 30.3955C8.30811 30.2316 8.35889 30.0526 8.37305 29.8689C8.3877 29.6853 8.36523 29.5006 8.30811 29.3256C8.25049 29.1504 8.15918 28.9885 8.03857 28.849C7.91846 28.7096 7.77148 28.5953 7.60693 28.5129C7.44189 28.4305 7.2627 28.3816 7.07861 28.369C6.89502 28.3563 6.71045 28.3804 6.53613 28.4395C1.13428 30.2106 0 32.5249 0 34.1545C0 39.1875 10.5195 41.8218 20.9106 41.8218C31.3022 41.8218 41.8218 39.1875 41.8218 34.1545C41.8218 32.5249 40.6875 30.2106 35.2856 28.4395Z" fill="#E3010F" fill-opacity="1.000000" fill-rule="nonzero"/>
	<path id="Vector" d="M20.0405 35.9404C20.2881 36.1379 20.5947 36.2455 20.9111 36.2455C21.2275 36.2455 21.5347 36.1379 21.7817 35.9404C22.2915 35.532 34.2539 25.8186 34.2539 13.3429C34.2539 9.80408 32.8481 6.41028 30.3462 3.90808C27.8438 1.40576 24.4502 0 20.9111 0C17.3726 0 13.9785 1.40576 11.4766 3.90808C8.97412 6.41028 7.56836 9.80408 7.56836 13.3429C7.56836 25.8186 19.5308 35.5321 20.0405 35.9404ZM16.1318 13.3429C16.1318 12.3976 16.4121 11.4735 16.9375 10.6875C17.4624 9.90149 18.209 9.28894 19.0825 8.92725C19.9556 8.56555 20.9165 8.47095 21.8438 8.6554C22.771 8.83984 23.6226 9.29504 24.291 9.9635C24.9595 10.632 25.4146 11.4835 25.5991 12.4108C25.7837 13.3379 25.689 14.299 25.3271 15.1722C24.9653 16.0457 24.3525 16.7921 23.5669 17.3173C22.7808 17.8424 21.8564 18.1228 20.9111 18.1228C19.6436 18.1227 18.4277 17.6191 17.5317 16.7228C16.6353 15.8263 16.1318 14.6106 16.1318 13.3429L16.1318 13.3429Z" fill="#E3010F" fill-opacity="1.000000" fill-rule="nonzero"/>
</svg>

