<svg width="41.000000" height="41.000000" viewBox="0 0 41 41" fill="none" xmlns="http://www.w3.org/2000/svg" xmlns:xlink="http://www.w3.org/1999/xlink">
	<desc>
			Created with Pixso.
	</desc>
	<defs/>
	<path id="Vector" d="M20.5 2.5625C30.3896 2.5625 38.4375 10.6104 38.4375 20.5C38.4375 30.3896 30.3896 38.4375 20.5 38.4375C10.6104 38.4375 2.5625 30.3896 2.5625 20.5C2.5625 10.6104 10.6104 2.5625 20.5 2.5625ZM20.5 0C9.17871 0 0 9.17871 0 20.5C0 31.8213 9.17871 41 20.5 41C31.8213 41 41 31.8213 41 20.5C41 9.17871 31.8213 0 20.5 0ZM31.9287 27.3545L31.8135 27.0039C31.5435 26.1982 30.6523 25.3574 29.8315 25.1318L26.8013 24.3037C25.9805 24.0811 24.8091 24.3809 24.2061 24.9844L23.1104 26.0801C19.1265 25.002 16.0005 21.876 14.9248 17.8926L16.0205 16.7969C16.6211 16.1953 16.9214 15.0244 16.6987 14.2012L15.873 11.1709C15.6504 10.3496 14.8047 9.45898 13.9985 9.18945L13.6533 9.07422C12.8452 8.80371 11.6914 9.07617 11.0908 9.67969L9.44922 11.3213C9.15625 11.6113 8.96875 12.4443 8.96875 12.4473C8.91357 17.6572 10.9556 22.6748 14.6392 26.3604C18.313 30.0342 23.313 32.0742 28.5054 32.0283C28.5327 32.0283 29.3911 31.8457 29.6841 31.5537L31.3257 29.9121C31.9263 29.3135 32.1963 28.1602 31.9287 27.3545Z" fill="#E3010F" fill-opacity="1.000000" fill-rule="nonzero"/>
</svg>
