<svg width="43.465332" height="25.863586" viewBox="0 0 43.4653 25.8636" fill="none" xmlns="http://www.w3.org/2000/svg" xmlns:xlink="http://www.w3.org/1999/xlink">
	<desc>
			Created with Pixso.
	</desc>
	<defs/>
	<path id="Vector" d="M42.8755 3.47937L34.75 3.47937L24.7324 0.211121C24.1309 0.0142822 23.4932 -0.0459595 22.8652 0.03479C22.2378 0.115479 21.6357 0.335144 21.1035 0.677734L15.0679 4.55542C15.0024 4.59717 14.9463 4.65137 14.9023 4.71484C14.8579 4.77838 14.8267 4.84998 14.8101 4.92554C14.7939 5.00116 14.7925 5.07922 14.8062 5.1554C14.8198 5.23157 14.8481 5.30426 14.8901 5.36938C14.9316 5.43451 14.9858 5.49072 15.0493 5.53491C15.1128 5.5791 15.1846 5.61035 15.2603 5.62683C15.3354 5.64337 15.4136 5.64484 15.4897 5.63116C15.5659 5.61749 15.6387 5.58893 15.7041 5.54718L21.7397 1.67462C22.1255 1.42706 22.561 1.26874 23.0156 1.21112C23.4702 1.1535 23.9316 1.19812 24.3667 1.34167L34.4766 4.63043C34.5352 4.64972 34.5967 4.65942 34.6587 4.65918L42.2876 4.65918L42.2876 14.5574L37.9043 14.5574C37.7964 14.5575 37.6904 14.5873 37.5981 14.6435C37.5059 14.6996 37.4307 14.7801 37.3809 14.876C36.7207 15.9928 35.7124 16.8622 34.5107 17.3508L34.5107 14.7023C35.4551 14.2994 36.4634 13.5985 37.1064 12.3765C37.1431 12.308 37.165 12.2329 37.1724 12.1557C37.1797 12.0785 37.1719 12.0006 37.1489 11.9265C37.126 11.8524 37.0889 11.7835 37.0391 11.7238C36.9897 11.6641 36.9292 11.6147 36.8604 11.5785C36.792 11.5422 36.7168 11.5198 36.6396 11.5126C36.5625 11.5054 36.4844 11.5134 36.4106 11.5363C36.3364 11.5591 36.2676 11.5964 36.208 11.6458C36.1479 11.6953 36.0986 11.756 36.0625 11.8246C34.9424 13.9664 32.1572 14.062 32.1416 14.062C28.4111 14.062 27.334 11.4577 27.2905 11.3498C27.248 11.2386 27.1724 11.143 27.0742 11.0755C26.9761 11.008 26.8599 10.9717 26.7407 10.9716L21.2046 10.9716C20.9946 10.977 20.7856 10.9402 20.5898 10.8636C20.3945 10.787 20.2163 10.672 20.0659 10.5254C19.9155 10.3788 19.7959 10.2036 19.7144 10.0101C19.6328 9.81653 19.5908 9.60864 19.5908 9.39862C19.5908 9.1886 19.6328 8.98071 19.7144 8.78723C19.7959 8.59369 19.9155 8.41852 20.0659 8.27191C20.2163 8.12531 20.3945 8.01031 20.5898 7.93365C20.7856 7.85699 20.9946 7.82031 21.2046 7.82568L27.813 7.82568C27.8921 7.82898 27.9717 7.81622 28.0459 7.78809C28.1206 7.75995 28.1885 7.7171 28.2456 7.66205C28.3032 7.60693 28.3486 7.54083 28.3799 7.46771C28.4111 7.39453 28.4272 7.3158 28.4272 7.23627C28.4272 7.15674 28.4111 7.078 28.3799 7.00482C28.3486 6.9317 28.3032 6.8656 28.2456 6.81049C28.1885 6.75543 28.1206 6.71259 28.0459 6.68445C27.9717 6.65631 27.8921 6.64355 27.813 6.64685L21.2046 6.64685C20.8384 6.63977 20.4751 6.70575 20.1348 6.84082C19.7949 6.97595 19.4854 7.17755 19.2241 7.43378C18.9629 7.69 18.7554 7.99573 18.6138 8.33313C18.4717 8.67047 18.3989 9.03271 18.3989 9.39862C18.3989 9.76453 18.4717 10.1268 18.6138 10.4642C18.7554 10.8016 18.9629 11.1073 19.2241 11.3635C19.4854 11.6198 19.7949 11.8213 20.1348 11.9564C20.4751 12.0916 20.8384 12.1575 21.2046 12.1504L26.3721 12.1504C26.8643 13.0538 28.4409 15.2408 32.1538 15.2408C32.5508 15.2233 32.9453 15.1685 33.3315 15.0775L33.3315 23.8132C33.3315 24.0438 33.2397 24.2648 33.0767 24.4277C32.9136 24.5908 32.6929 24.6824 32.4624 24.6827L2.04834 24.6827C1.81787 24.6824 1.59717 24.5911 1.43408 24.4285C1.271 24.266 1.17871 24.0455 1.17773 23.8153L1.17773 8.69513C1.17822 8.46466 1.26953 8.24365 1.43262 8.08063C1.5957 7.91766 1.81689 7.82593 2.04736 7.82568L17.0762 7.82568C17.1553 7.82898 17.2349 7.81622 17.3091 7.78809C17.3838 7.75995 17.4517 7.7171 17.5088 7.66205C17.5664 7.60693 17.6118 7.54083 17.6431 7.46771C17.6743 7.39453 17.6904 7.3158 17.6904 7.23627C17.6904 7.15674 17.6743 7.078 17.6431 7.00482C17.6118 6.9317 17.5664 6.8656 17.5088 6.81049C17.4517 6.75543 17.3838 6.71259 17.3091 6.68445C17.2349 6.65631 17.1553 6.64355 17.0762 6.64685L2.04834 6.64685C1.50586 6.64874 0.98584 6.86517 0.602051 7.2489C0.218262 7.63263 0.00195312 8.15247 0 8.69513L0 23.8153C0.00195312 24.358 0.218262 24.8779 0.602051 25.2615C0.98584 25.6453 1.50586 25.8617 2.04834 25.8636L32.4624 25.8636C33.0049 25.8617 33.5249 25.6453 33.9087 25.2615C34.2925 24.8779 34.5088 24.358 34.5107 23.8153L34.5107 18.5995C36.6235 17.9263 37.8066 16.4022 38.2383 15.7352L42.8755 15.7352C43.0317 15.7352 43.1816 15.6732 43.292 15.5627C43.4028 15.4523 43.4648 15.3026 43.4653 15.1463L43.4653 4.06927C43.4653 3.91284 43.4033 3.76276 43.2925 3.65216C43.1816 3.5415 43.0317 3.47937 42.8755 3.47937Z" fill="#E3010F" fill-opacity="1.000000" fill-rule="nonzero"/>
	<path id="Vector" d="M3.99707 19.361L3.99707 13.1483C4.61719 13.0291 5.18701 12.7267 5.63379 12.2803C6.08008 11.8338 6.38232 11.2637 6.50146 10.6437L16.5664 10.6437C16.7183 10.6373 16.8618 10.5724 16.9673 10.4626C17.0728 10.3528 17.1313 10.2064 17.1313 10.0543C17.1313 9.90204 17.0728 9.75574 16.9673 9.64594C16.8618 9.53607 16.7183 9.47119 16.5664 9.46484L5.96826 9.46484C5.81152 9.46484 5.66162 9.52698 5.55127 9.63763C5.44043 9.74829 5.37842 9.89832 5.37842 10.0547C5.37891 10.3138 5.32812 10.5705 5.229 10.81C5.13037 11.0495 4.98535 11.2672 4.80225 11.4506C4.61963 11.634 4.40234 11.7797 4.16309 11.8791C3.92383 11.9785 3.66699 12.0298 3.4082 12.0301C3.25342 12.0312 3.10498 12.0931 2.99561 12.2025C2.88574 12.3119 2.82373 12.46 2.82227 12.6149L2.82227 19.8954C2.82227 19.9728 2.8374 20.0495 2.86719 20.121C2.89697 20.1925 2.94043 20.2575 2.99512 20.3122C3.0498 20.3669 3.11475 20.4102 3.18652 20.4398C3.2583 20.4693 3.33496 20.4844 3.41211 20.4843C3.93457 20.4851 4.43555 20.6931 4.80469 21.0626C5.17432 21.4321 5.38184 21.933 5.38232 22.4555C5.38232 22.533 5.39746 22.6096 5.42725 22.6811C5.45703 22.7526 5.50049 22.8176 5.55518 22.8723C5.60986 22.927 5.67529 22.9703 5.74658 22.9999C5.81836 23.0294 5.89502 23.0446 5.97217 23.0444L28.5425 23.0444C28.6201 23.0446 28.6968 23.0294 28.7681 22.9999C28.8398 22.9703 28.9048 22.927 28.9595 22.8723C29.0146 22.8176 29.0581 22.7526 29.0874 22.6811C29.1172 22.6096 29.1323 22.533 29.1323 22.4555C29.1328 21.933 29.3408 21.4321 29.71 21.0626C30.0796 20.6931 30.5801 20.4851 31.1025 20.4843C31.1802 20.4844 31.2568 20.4693 31.3281 20.4398C31.3999 20.4102 31.4648 20.3669 31.5195 20.3122C31.5747 20.2575 31.6182 20.1925 31.6475 20.121C31.6772 20.0495 31.6924 19.9728 31.6924 19.8954L31.6924 17.2315C31.6958 17.152 31.6831 17.0727 31.6548 16.9983C31.627 16.9239 31.584 16.856 31.5288 16.7985C31.4736 16.7411 31.4077 16.6954 31.3345 16.6642C31.2612 16.6331 31.1826 16.6169 31.103 16.6169C31.0234 16.6169 30.9448 16.6331 30.8716 16.6642C30.7983 16.6954 30.7324 16.7411 30.6772 16.7985C30.6226 16.856 30.5796 16.9239 30.5513 16.9983C30.5234 17.0727 30.5103 17.152 30.5137 17.2315L30.5137 19.361C29.894 19.4804 29.3237 19.7828 28.8774 20.2292C28.4312 20.6757 28.1284 21.2457 28.0093 21.8656L6.50146 21.8656C6.38232 21.2457 6.07959 20.6757 5.6333 20.2292C5.18701 19.7828 4.6167 19.4804 3.99707 19.361Z" fill="#E3010F" fill-opacity="1.000000" fill-rule="nonzero"/>
	<path id="Vector" d="M17.6694 17.3223C19.0776 17.3223 20.0625 16.3404 20.0625 14.9288C20.0625 13.5172 19.0776 12.5659 17.6694 12.5659L14.9663 12.5659C14.8569 12.5659 14.7681 12.6547 14.7681 12.7641L14.7681 16.1767L13.9077 16.1767C13.7979 16.1767 13.709 16.2654 13.709 16.3749L13.709 17.1241C13.709 17.2336 13.7979 17.3223 13.9077 17.3223L14.7681 17.3223L14.7681 17.8508L13.9077 17.8508C13.7979 17.8508 13.709 17.9396 13.709 18.049L13.709 18.7097C13.709 18.8191 13.7979 18.9078 13.9077 18.9078L14.7681 18.9078L14.7681 19.7666C14.7681 19.8761 14.8569 19.9648 14.9663 19.9648L15.9355 19.9648C16.0449 19.9648 16.1338 19.8761 16.1338 19.7666L16.1338 18.9078L18.8052 18.9078C18.9146 18.9078 19.0034 18.8191 19.0034 18.7097L19.0034 18.049C19.0034 17.9396 18.9146 17.8508 18.8052 17.8508L16.1338 17.8508L16.1338 17.3223L17.6694 17.3223ZM16.1338 13.7013L17.4365 13.7013C18.2095 13.7013 18.6753 14.1821 18.6753 14.9288C18.6753 15.6857 18.2095 16.1767 17.415 16.1767L16.1338 16.1767L16.1338 13.7013Z" fill="#E3010F" fill-opacity="1.000000" fill-rule="nonzero"/>
	<path id="Vector" d="M10.3486 15.8389C10.2397 15.9482 10.1777 16.0957 10.1758 16.25C10.1758 16.289 10.1797 16.3279 10.188 16.3661C10.1953 16.4036 10.2065 16.4401 10.2222 16.475C10.2363 16.5113 10.2544 16.5458 10.2764 16.5778C10.2974 16.6097 10.3213 16.6393 10.3486 16.6662C10.376 16.6937 10.4058 16.7184 10.438 16.7402C10.4702 16.7613 10.5049 16.7792 10.5405 16.7936C10.5767 16.8085 10.6138 16.8202 10.6519 16.8286C10.6895 16.8356 10.728 16.8391 10.7666 16.8389C10.9229 16.8383 11.0723 16.7763 11.1831 16.6662C11.2104 16.6391 11.2354 16.6096 11.2568 16.5778C11.2773 16.5449 11.2959 16.5106 11.3115 16.475C11.3252 16.4396 11.3359 16.4032 11.3442 16.3661C11.3521 16.3279 11.356 16.289 11.3555 16.25C11.355 16.1338 11.3193 16.0204 11.2544 15.9243C11.1895 15.828 11.0972 15.7532 10.9893 15.7093C10.8818 15.6653 10.7637 15.6542 10.6499 15.6772C10.5361 15.7003 10.4316 15.7565 10.3496 15.8389L10.3486 15.8389Z" fill="#E3010F" fill-opacity="1.000000" fill-rule="nonzero"/>
	<path id="Vector" d="M23.2544 16.5829C23.2764 16.6144 23.3013 16.644 23.3286 16.6713C23.3896 16.7332 23.4639 16.7806 23.5459 16.8101C23.6279 16.8397 23.7153 16.8506 23.8022 16.8422C23.8887 16.8337 23.9727 16.806 24.0474 16.7612C24.1221 16.7164 24.1855 16.6555 24.2339 16.5829C24.2559 16.5509 24.2744 16.5164 24.2886 16.4802C24.3037 16.4452 24.3149 16.4086 24.3223 16.3712C24.3306 16.3337 24.3345 16.2955 24.3345 16.2571C24.3379 16.1777 24.3252 16.0983 24.2969 16.0239C24.269 15.9495 24.2261 15.8816 24.1709 15.8242C24.1157 15.7667 24.0498 15.7211 23.9766 15.6899C23.9033 15.6587 23.8247 15.6426 23.7451 15.6426C23.6655 15.6426 23.5869 15.6587 23.5137 15.6899C23.4404 15.7211 23.3745 15.7667 23.3193 15.8242C23.2642 15.8816 23.2217 15.9495 23.1934 16.0239C23.165 16.0983 23.1523 16.1777 23.1558 16.2571C23.1558 16.2954 23.1597 16.3336 23.167 16.3712C23.1753 16.4084 23.1865 16.4449 23.2012 16.4802C23.2158 16.5158 23.2339 16.5502 23.2544 16.5829Z" fill="#E3010F" fill-opacity="1.000000" fill-rule="nonzero"/>
</svg>
