<svg width="44.000000" height="32.139099" viewBox="0 0 44 32.1391" fill="none" xmlns="http://www.w3.org/2000/svg" xmlns:xlink="http://www.w3.org/1999/xlink">
	<desc>
			Created with Pixso.
	</desc>
	<defs/>
	<path id="Vector" d="M11.5581 15.9824L10.8467 21.1119C10.8203 21.301 10.8462 21.4937 10.9209 21.6694C10.9956 21.845 11.1167 21.9971 11.2715 22.1093C11.4258 22.2214 11.6079 22.2896 11.7979 22.3064C11.9883 22.3232 12.1792 22.288 12.3511 22.2047L16.9946 19.9433L21.6533 22.2052C21.8252 22.2884 22.0161 22.3234 22.2065 22.3064C22.3965 22.2895 22.5786 22.2212 22.7329 22.1089C22.8872 21.9966 23.0083 21.8445 23.083 21.6688C23.1577 21.4932 23.1836 21.3005 23.1572 21.1114L22.4414 15.9966L26.0317 12.2653C26.1641 12.1277 26.2563 11.9568 26.2993 11.7707C26.3423 11.5847 26.3335 11.3904 26.2744 11.2089C26.2158 11.0273 26.1084 10.8651 25.9644 10.7397C25.8208 10.6143 25.645 10.5303 25.4575 10.4967L20.3711 9.59698L17.9316 5.0293C17.8418 4.86084 17.7075 4.71997 17.5439 4.62177C17.3804 4.52356 17.1929 4.47168 17.002 4.47168C16.811 4.47168 16.6235 4.52356 16.46 4.62177C16.2964 4.71997 16.1621 4.86084 16.0723 5.0293L13.6445 9.58807L8.54639 10.4967C8.3584 10.5303 8.18311 10.6143 8.03955 10.7397C7.89551 10.8651 7.78809 11.0273 7.72949 11.2089C7.67041 11.3904 7.66162 11.5847 7.70459 11.7707C7.74756 11.9568 7.83984 12.1277 7.97217 12.2653L11.5581 15.9824ZM13.834 10.6426C13.9907 10.6147 14.1392 10.5515 14.2681 10.4577C14.397 10.3639 14.5029 10.242 14.5771 10.1012L16.9863 5.53302L17.459 5.28125L16.9868 5.53339L19.4263 10.1011C19.5015 10.242 19.6074 10.364 19.7363 10.4578C19.8652 10.5516 20.0142 10.6148 20.1709 10.6425L25.2598 11.5223L21.6704 15.2536C21.5591 15.3682 21.4756 15.5068 21.4263 15.6586C21.377 15.8105 21.3628 15.9717 21.3853 16.1298L22.1206 21.241L17.4624 18.9796C17.3193 18.9094 17.1616 18.8729 17.002 18.8729C16.8428 18.8729 16.6851 18.9094 16.542 18.9796L11.9077 21.2587L12.6196 16.1282C12.6416 15.9703 12.6274 15.8095 12.5781 15.658C12.5288 15.5065 12.4453 15.3682 12.3345 15.2536L8.73486 11.5511L13.834 10.6426Z" fill="#E3010F" fill-opacity="1.000000" fill-rule="nonzero"/>
	<path id="Vector" d="M30.0176 16.4974C30.2656 15.4806 30.3911 14.4379 30.3926 13.3913C30.3926 9.83972 28.9819 6.43359 26.4707 3.92224C23.959 1.41089 20.5532 0 17.0015 0C13.4497 0 10.0439 1.41089 7.53223 3.92224C5.021 6.43359 3.61035 9.83972 3.61035 13.3913C3.61133 14.4378 3.7373 15.4805 3.98535 16.4972C2.94922 17.4131 2.26953 18.6649 2.06494 20.0326C1.86035 21.4002 2.14404 22.7962 2.8667 23.9753C3.58936 25.1543 4.70459 26.0409 6.01611 26.4793C7.32764 26.9177 8.75146 26.8798 10.0381 26.3723L10.0381 31.6035C10.0381 31.6812 10.0552 31.7581 10.0874 31.8286C10.1201 31.8992 10.168 31.9618 10.2275 32.0121C10.2866 32.0624 10.3564 32.0991 10.4312 32.1198C10.5063 32.1404 10.585 32.1445 10.6616 32.1318L17.0015 31.0751L23.3413 32.1318C23.3706 32.1365 23.3999 32.139 23.4292 32.1391C23.5713 32.1391 23.7075 32.0827 23.8081 31.9822C23.9087 31.8818 23.9648 31.7455 23.9648 31.6035L23.9648 26.3723C25.251 26.8787 26.6748 26.9158 27.9854 26.4771C29.2964 26.0385 30.4106 25.152 31.1328 23.9735C31.8555 22.795 32.1396 21.3997 31.9355 20.0326C31.7314 18.6654 31.0527 17.4138 30.0176 16.4974ZM17.0015 1.07129C20.2676 1.07495 23.3994 2.37408 25.709 4.68378C28.0186 6.99341 29.3179 10.1249 29.3213 13.3913C29.3223 14.4578 29.1826 15.5198 28.9058 16.5497C28.1694 19.3097 26.5005 21.7297 24.1826 23.3985C23.8535 23.6354 23.5127 23.8556 23.1616 24.0583L23.1606 24.0589L23.1567 24.0614C22.8955 24.2158 22.6201 24.3544 22.3853 24.4694C20.7085 25.2865 18.8677 25.7112 17.002 25.7113C15.1367 25.7114 13.2954 25.2869 11.6187 24.47C11.3828 24.3544 11.1074 24.2158 10.8418 24.0583C10.4897 23.8551 10.1479 23.6343 9.81787 23.3967C7.5 21.7272 5.83203 19.3066 5.09668 16.5463C4.81982 15.5175 4.68018 14.4567 4.68164 13.3913C4.68506 10.1249 5.98438 6.99341 8.29395 4.68378C10.6035 2.37408 13.7349 1.07495 17.0015 1.07129ZM7.89551 25.7113C6.96338 25.7114 6.05127 25.4413 5.26953 24.9337C4.48779 24.426 3.87012 23.7027 3.49121 22.8511C3.11182 21.9996 2.98779 21.0565 3.13379 20.1359C3.28027 19.2154 3.68994 18.3569 4.31396 17.6645C4.32471 17.6975 4.33984 17.7288 4.35107 17.7619C4.46484 18.0905 4.58838 18.4154 4.72705 18.7332C4.73877 18.7603 4.75195 18.7867 4.76416 18.8135C4.90479 19.1301 5.05762 19.4406 5.22217 19.7451C5.23682 19.7719 5.25 19.7996 5.26514 19.8265C5.43311 20.1318 5.61523 20.4293 5.80664 20.7207C5.83594 20.7658 5.86475 20.8112 5.89502 20.856C6.08545 21.139 6.28662 21.4144 6.49854 21.6823C6.53271 21.7256 6.56738 21.7684 6.60205 21.8113C6.82031 22.0809 7.04736 22.3433 7.28613 22.5956C7.31152 22.6227 7.33838 22.6487 7.36426 22.6759C7.86865 23.2007 8.41455 23.6834 8.99756 24.1193C9.03223 24.1453 9.06592 24.1721 9.10059 24.1975C9.37793 24.4008 9.66357 24.5927 9.95752 24.7734C9.98535 24.7905 10.0103 24.8107 10.0381 24.8275L10.0381 25.2094C9.37207 25.5393 8.63867 25.7111 7.89551 25.7113ZM11.1094 25.5292L11.1094 25.413L11.147 25.4318C12.8066 26.2446 14.6187 26.6998 16.4658 26.7677L16.4658 30.0785L11.1094 30.971L11.1094 25.5292ZM22.8936 30.971L17.5371 30.0785L17.5371 26.7677C19.3843 26.6998 21.1963 26.2445 22.8564 25.4314C22.8687 25.4257 22.8809 25.4194 22.8936 25.4131L22.8936 30.971ZM26.1074 25.7113C25.3643 25.7111 24.6309 25.5392 23.9648 25.2091L23.9648 24.8275C23.9912 24.8114 24.0151 24.7922 24.0415 24.7759C24.3354 24.5942 24.6211 24.4021 24.8994 24.1995C24.937 24.1721 24.9731 24.1433 25.0103 24.1155C25.2988 23.8994 25.5806 23.6746 25.8501 23.4365L25.8545 23.4324C26.125 23.1929 26.3838 22.9407 26.6338 22.6807C26.6621 22.6514 26.6909 22.6231 26.7192 22.5935C26.9565 22.3424 27.1821 22.0814 27.3994 21.8131C27.4346 21.7694 27.4702 21.726 27.5049 21.6819C27.7168 21.4134 27.9185 21.1373 28.1099 20.8538C28.1382 20.8113 28.1655 20.7681 28.1938 20.7252C28.3872 20.4306 28.5708 20.1307 28.7407 19.8217C28.752 19.8009 28.7622 19.7795 28.7739 19.7586C28.9443 19.4439 29.1025 19.1225 29.248 18.7944C29.2559 18.7764 29.2646 18.7589 29.2729 18.7408C29.4146 18.4161 29.541 18.0845 29.6567 17.7486C29.6665 17.7201 29.6797 17.693 29.689 17.6644C30.313 18.3568 30.7227 19.2153 30.8687 20.1359C31.0146 21.0564 30.8906 21.9996 30.5117 22.8511C30.1328 23.7026 29.5151 24.426 28.7334 24.9337C27.9517 25.4413 27.0396 25.7114 26.1074 25.7113Z" fill="#E3010F" fill-opacity="1.000000" fill-rule="nonzero"/>
</svg>
